# xmcd
#
# Track frame offsets:
#	150
#	14978
#	27462
#	44830
#	64659
#	80215
#	101679
#	120115
#	138349
#	152842
#	167806
#	185517
#	203470
#	219163
#	235907
#	251066
#	267608
#	284536
#	298701
#	313232
#
# Disc length: 4409 seconds
#
# Revision: 0
# Processed by: cddbd v1.5.2PL0 Copyright (c) Steve Scherf et al.
# Submitted via: EasyCDDAExtractor 12.0.7.1
#
DISCID=38113714
DTITLE=Михаил Шуфутинский - Аллея шансона
DYEAR=2011
DGENRE=Chanson
TTITLE0=Брато
TTITLE1=Эх, цыганка
TTITLE2=Таганка
TTITLE3=Ты люби меня, люби
TTITLE4=Бутылка вина
TTITLE5=Я поеду на юг
TTITLE6=Доля шоферская
TTITLE7=Соло
TTITLE8=Обожаю
TTITLE9=Марджанджа
TTITLE10=Наколочка
TTITLE11=Левый берег Дона
TTITLE12=Шарада-ночь (Михаил Шуфутинский и Катя Лель)
TTITLE13=Пропажа
TTITLE14=Отец
TTITLE15=Улетайте вороны
TTITLE16=Тополя
TTITLE17=Москва - Владивосток
TTITLE18=От пункта я до пункта ты
TTITLE19=Капля теплоты (Михаил Шуфутинский и Алика Смехова)
EXTD=
EXTT0=
EXTT1=
EXTT2=
EXTT3=
EXTT4=
EXTT5=
EXTT6=
EXTT7=
EXTT8=
EXTT9=
EXTT10=
EXTT11=
EXTT12=
EXTT13=
EXTT14=
EXTT15=
EXTT16=
EXTT17=
EXTT18=
EXTT19=
PLAYORDER=
